<svg width="404" height="302" viewBox="0 0 404 302" fill="none" xmlns="http://www.w3.org/2000/svg">
<g filter="url(#filter0_d_49_381)">
<rect x="41" y="34" width="327" height="224.991" rx="16.3969" fill="white"/>
</g>
<path opacity="0.76" d="M79.4897 111.873V234.64" stroke="#D9DEE2" stroke-width="0.54816" stroke-linecap="square"/>
<path opacity="0.76" d="M157.443 111.873V234.64" stroke="#D9DEE2" stroke-width="0.54816" stroke-linecap="square"/>
<path opacity="0.76" d="M235.397 111.873V234.64" stroke="#D9DEE2" stroke-width="0.54816" stroke-linecap="square"/>
<path opacity="0.76" d="M313.35 111.873V234.64" stroke="#D9DEE2" stroke-width="0.54816" stroke-linecap="square"/>
<rect x="73.414" y="118.848" width="105.822" height="12.3936" rx="6.19679" fill="#094E90"/>
<rect x="146.822" y="173.19" width="120.122" height="12.3936" rx="6.19679" fill="#EE9421"/>
<path d="M80.7135 159.484C86.6447 159.484 91.468 154.744 91.468 148.879C91.468 143.014 86.6447 138.274 80.7135 138.274C74.7823 138.274 69.9589 143.014 69.9589 148.879C69.9589 154.744 74.7823 159.484 80.7135 159.484Z" fill="#C5E2FD" stroke="white" stroke-width="1.18986"/>
<g clip-path="url(#clip0_49_381)">
<rect x="95.6542" y="144.757" width="54.9814" height="9.42137" rx="4.71068" fill="#F6F6F6"/>
<path d="M110.753 147.767V151.838H110.085V147.767H110.753ZM113.258 148.558C113.512 148.558 113.739 148.61 113.938 148.716C114.141 148.821 114.299 148.978 114.412 149.185C114.525 149.392 114.582 149.641 114.582 149.934V151.838H113.92V150.034C113.92 149.745 113.848 149.524 113.703 149.372C113.559 149.216 113.362 149.138 113.112 149.138C112.862 149.138 112.663 149.216 112.514 149.372C112.37 149.524 112.297 149.745 112.297 150.034V151.838H111.63V148.61H112.297V148.98C112.407 148.847 112.545 148.743 112.713 148.669C112.885 148.595 113.067 148.558 113.258 148.558ZM119.802 148.98C119.802 149.187 119.754 149.382 119.656 149.565C119.558 149.749 119.402 149.899 119.187 150.016C118.973 150.13 118.697 150.186 118.361 150.186H117.623V151.838H116.955V147.767H118.361C118.674 147.767 118.937 147.822 119.152 147.931C119.371 148.036 119.533 148.181 119.638 148.364C119.748 148.548 119.802 148.753 119.802 148.98ZM118.361 149.641C118.615 149.641 118.805 149.585 118.93 149.472C119.055 149.354 119.117 149.19 119.117 148.98C119.117 148.534 118.865 148.312 118.361 148.312H117.623V149.641H118.361ZM121.107 149.079C121.205 148.915 121.334 148.788 121.494 148.698C121.658 148.605 121.851 148.558 122.074 148.558V149.249H121.904C121.642 149.249 121.443 149.315 121.306 149.448C121.173 149.581 121.107 149.811 121.107 150.139V151.838H120.439V148.61H121.107V149.079ZM124.087 151.891C123.783 151.891 123.507 151.823 123.261 151.686C123.015 151.545 122.822 151.35 122.682 151.1C122.541 150.846 122.471 150.553 122.471 150.221C122.471 149.893 122.543 149.602 122.687 149.349C122.832 149.095 123.029 148.899 123.279 148.763C123.529 148.626 123.808 148.558 124.117 148.558C124.425 148.558 124.704 148.626 124.954 148.763C125.204 148.899 125.402 149.095 125.546 149.349C125.691 149.602 125.763 149.893 125.763 150.221C125.763 150.549 125.689 150.84 125.54 151.094C125.392 151.348 125.189 151.545 124.931 151.686C124.677 151.823 124.396 151.891 124.087 151.891ZM124.087 151.311C124.259 151.311 124.419 151.27 124.568 151.188C124.72 151.106 124.843 150.983 124.937 150.819C125.031 150.655 125.077 150.456 125.077 150.221C125.077 149.987 125.032 149.79 124.943 149.63C124.853 149.466 124.734 149.343 124.585 149.261C124.437 149.179 124.277 149.138 124.105 149.138C123.933 149.138 123.773 149.179 123.625 149.261C123.48 149.343 123.365 149.466 123.279 149.63C123.193 149.79 123.15 149.987 123.15 150.221C123.15 150.569 123.238 150.838 123.414 151.03C123.593 151.217 123.818 151.311 124.087 151.311ZM127.723 148.558C127.973 148.558 128.194 148.609 128.385 148.71C128.581 148.808 128.733 148.931 128.842 149.079V148.61H129.516V151.891C129.516 152.188 129.453 152.451 129.328 152.682C129.203 152.916 129.022 153.1 128.784 153.232C128.549 153.365 128.268 153.431 127.94 153.431C127.503 153.431 127.139 153.328 126.851 153.121C126.562 152.918 126.398 152.641 126.358 152.289H127.02C127.071 152.457 127.179 152.592 127.343 152.693C127.51 152.799 127.71 152.852 127.94 152.852C128.21 152.852 128.426 152.77 128.59 152.606C128.758 152.441 128.842 152.203 128.842 151.891V151.352C128.729 151.504 128.575 151.633 128.379 151.739C128.188 151.84 127.969 151.891 127.723 151.891C127.442 151.891 127.184 151.821 126.95 151.68C126.72 151.535 126.536 151.336 126.399 151.082C126.267 150.825 126.2 150.534 126.2 150.21C126.2 149.886 126.267 149.599 126.399 149.349C126.536 149.099 126.72 148.905 126.95 148.769C127.184 148.628 127.442 148.558 127.723 148.558ZM128.842 150.221C128.842 149.999 128.795 149.805 128.702 149.641C128.612 149.477 128.493 149.352 128.344 149.267C128.196 149.181 128.036 149.138 127.864 149.138C127.692 149.138 127.532 149.181 127.384 149.267C127.235 149.349 127.114 149.472 127.02 149.636C126.931 149.796 126.886 149.987 126.886 150.21C126.886 150.432 126.931 150.628 127.02 150.795C127.114 150.963 127.235 151.092 127.384 151.182C127.536 151.268 127.696 151.311 127.864 151.311C128.036 151.311 128.196 151.268 128.344 151.182C128.493 151.096 128.612 150.971 128.702 150.807C128.795 150.639 128.842 150.444 128.842 150.221ZM131.061 149.079C131.158 148.915 131.287 148.788 131.447 148.698C131.611 148.605 131.805 148.558 132.027 148.558V149.249H131.857C131.596 149.249 131.397 149.315 131.26 149.448C131.127 149.581 131.061 149.811 131.061 150.139V151.838H130.393V148.61H131.061V149.079ZM135.599 150.145C135.599 150.266 135.591 150.376 135.576 150.473H133.11C133.129 150.731 133.225 150.938 133.397 151.094C133.569 151.25 133.779 151.329 134.029 151.329C134.389 151.329 134.642 151.178 134.791 150.877H135.511C135.414 151.174 135.236 151.418 134.978 151.61C134.724 151.797 134.408 151.891 134.029 151.891C133.721 151.891 133.444 151.823 133.198 151.686C132.955 151.545 132.764 151.35 132.623 151.1C132.487 150.846 132.418 150.553 132.418 150.221C132.418 149.889 132.485 149.599 132.618 149.349C132.754 149.095 132.944 148.899 133.186 148.763C133.432 148.626 133.713 148.558 134.029 148.558C134.334 148.558 134.605 148.624 134.844 148.757C135.082 148.89 135.267 149.077 135.4 149.319C135.533 149.558 135.599 149.833 135.599 150.145ZM134.902 149.934C134.898 149.688 134.81 149.491 134.639 149.343C134.467 149.194 134.254 149.12 134 149.12C133.77 149.12 133.572 149.194 133.408 149.343C133.244 149.487 133.147 149.684 133.116 149.934H134.902ZM137.428 151.891C137.174 151.891 136.946 151.846 136.743 151.756C136.543 151.662 136.385 151.537 136.268 151.381C136.151 151.221 136.088 151.043 136.081 150.848H136.772C136.784 150.985 136.848 151.1 136.965 151.194C137.086 151.284 137.237 151.329 137.416 151.329C137.604 151.329 137.748 151.293 137.85 151.223C137.955 151.149 138.008 151.055 138.008 150.942C138.008 150.821 137.949 150.731 137.832 150.672C137.719 150.614 137.537 150.549 137.287 150.479C137.045 150.413 136.848 150.348 136.696 150.286C136.543 150.223 136.411 150.128 136.297 149.999C136.188 149.87 136.133 149.7 136.133 149.489C136.133 149.317 136.184 149.161 136.286 149.021C136.387 148.876 136.532 148.763 136.719 148.681C136.911 148.599 137.129 148.558 137.375 148.558C137.742 148.558 138.037 148.652 138.26 148.839C138.486 149.022 138.607 149.274 138.623 149.595H137.955C137.943 149.45 137.885 149.335 137.779 149.249C137.674 149.163 137.531 149.12 137.352 149.12C137.176 149.12 137.041 149.153 136.948 149.22C136.854 149.286 136.807 149.374 136.807 149.483C136.807 149.569 136.838 149.641 136.901 149.7C136.963 149.759 137.039 149.805 137.129 149.841C137.219 149.872 137.352 149.913 137.528 149.964C137.762 150.026 137.953 150.091 138.102 150.157C138.254 150.219 138.385 150.313 138.494 150.438C138.603 150.563 138.66 150.729 138.664 150.936C138.664 151.12 138.613 151.284 138.512 151.428C138.41 151.573 138.266 151.686 138.078 151.768C137.895 151.85 137.678 151.891 137.428 151.891ZM140.557 151.891C140.303 151.891 140.075 151.846 139.872 151.756C139.673 151.662 139.514 151.537 139.397 151.381C139.28 151.221 139.218 151.043 139.21 150.848H139.901C139.913 150.985 139.977 151.1 140.094 151.194C140.215 151.284 140.366 151.329 140.545 151.329C140.733 151.329 140.877 151.293 140.979 151.223C141.084 151.149 141.137 151.055 141.137 150.942C141.137 150.821 141.078 150.731 140.961 150.672C140.848 150.614 140.666 150.549 140.416 150.479C140.174 150.413 139.977 150.348 139.825 150.286C139.673 150.223 139.54 150.128 139.427 149.999C139.317 149.87 139.263 149.7 139.263 149.489C139.263 149.317 139.313 149.161 139.415 149.021C139.516 148.876 139.661 148.763 139.848 148.681C140.04 148.599 140.258 148.558 140.504 148.558C140.871 148.558 141.166 148.652 141.389 148.839C141.615 149.022 141.736 149.274 141.752 149.595H141.084C141.073 149.45 141.014 149.335 140.909 149.249C140.803 149.163 140.661 149.12 140.481 149.12C140.305 149.12 140.17 149.153 140.077 149.22C139.983 149.286 139.936 149.374 139.936 149.483C139.936 149.569 139.967 149.641 140.03 149.7C140.092 149.759 140.169 149.805 140.258 149.841C140.348 149.872 140.481 149.913 140.657 149.964C140.891 150.026 141.082 150.091 141.231 150.157C141.383 150.219 141.514 150.313 141.623 150.438C141.733 150.563 141.789 150.729 141.793 150.936C141.793 151.12 141.742 151.284 141.641 151.428C141.539 151.573 141.395 151.686 141.207 151.768C141.024 151.85 140.807 151.891 140.557 151.891Z" fill="#434D56"/>
<path d="M104.77 144.757C104.77 146.456 103.371 147.844 101.63 147.844C99.8903 147.844 98.491 146.456 98.491 144.757C98.491 143.059 99.8903 141.67 101.63 141.67C103.371 141.67 104.77 143.059 104.77 144.757Z" fill="#66C8EF" stroke="white" stroke-width="0.892397"/>
</g>
<ellipse cx="156.742" cy="203.126" rx="9.92009" ry="9.91585" fill="#F7C28D"/>
<g clip-path="url(#clip1_49_381)">
<rect x="171.927" y="200.276" width="50.2099" height="9.42137" rx="4.71068" fill="#F6F6F6"/>
<path d="M193.868 203.186C194.301 203.186 194.68 203.27 195.004 203.438C195.332 203.602 195.584 203.84 195.76 204.153C195.939 204.461 196.029 204.822 196.029 205.236C196.029 205.65 195.939 206.01 195.76 206.314C195.584 206.619 195.332 206.853 195.004 207.017C194.68 207.177 194.301 207.257 193.868 207.257H192.538V203.186H193.868ZM193.868 206.713C194.344 206.713 194.709 206.584 194.963 206.326C195.217 206.068 195.344 205.705 195.344 205.236C195.344 204.764 195.217 204.395 194.963 204.129C194.709 203.864 194.344 203.731 193.868 203.731H193.206V206.713H193.868ZM198.091 207.31C197.786 207.31 197.511 207.242 197.265 207.105C197.019 206.964 196.826 206.769 196.685 206.519C196.544 206.265 196.474 205.973 196.474 205.641C196.474 205.313 196.546 205.022 196.691 204.768C196.835 204.514 197.033 204.319 197.283 204.182C197.533 204.045 197.812 203.977 198.12 203.977C198.429 203.977 198.708 204.045 198.958 204.182C199.208 204.319 199.405 204.514 199.55 204.768C199.694 205.022 199.766 205.313 199.766 205.641C199.766 205.969 199.692 206.26 199.544 206.513C199.395 206.767 199.192 206.964 198.934 207.105C198.681 207.242 198.399 207.31 198.091 207.31ZM198.091 206.73C198.263 206.73 198.423 206.689 198.571 206.607C198.724 206.525 198.847 206.402 198.94 206.238C199.034 206.074 199.081 205.875 199.081 205.641C199.081 205.406 199.036 205.209 198.946 205.049C198.856 204.885 198.737 204.762 198.589 204.68C198.44 204.598 198.28 204.557 198.109 204.557C197.937 204.557 197.777 204.598 197.628 204.68C197.484 204.762 197.368 204.885 197.283 205.049C197.197 205.209 197.154 205.406 197.154 205.641C197.154 205.988 197.242 206.258 197.417 206.449C197.597 206.636 197.821 206.73 198.091 206.73ZM202.055 203.977C202.309 203.977 202.535 204.03 202.734 204.135C202.937 204.241 203.096 204.397 203.209 204.604C203.322 204.811 203.379 205.061 203.379 205.354V207.257H202.717V205.453C202.717 205.164 202.645 204.944 202.5 204.791C202.356 204.635 202.158 204.557 201.908 204.557C201.659 204.557 201.459 204.635 201.311 204.791C201.166 204.944 201.094 205.164 201.094 205.453V207.257H200.426V204.03H201.094V204.399C201.204 204.266 201.342 204.162 201.51 204.088C201.682 204.014 201.864 203.977 202.055 203.977ZM207.189 205.564C207.189 205.685 207.181 205.795 207.165 205.892H204.699C204.719 206.15 204.814 206.357 204.986 206.513C205.158 206.67 205.369 206.748 205.619 206.748C205.978 206.748 206.232 206.597 206.38 206.297H207.101C207.003 206.593 206.826 206.838 206.568 207.029C206.314 207.216 205.998 207.31 205.619 207.31C205.31 207.31 205.033 207.242 204.787 207.105C204.545 206.964 204.354 206.769 204.213 206.519C204.076 206.265 204.008 205.973 204.008 205.641C204.008 205.309 204.074 205.018 204.207 204.768C204.344 204.514 204.533 204.319 204.775 204.182C205.021 204.045 205.303 203.977 205.619 203.977C205.923 203.977 206.195 204.043 206.433 204.176C206.671 204.309 206.857 204.496 206.99 204.738C207.122 204.977 207.189 205.252 207.189 205.564ZM206.492 205.354C206.488 205.108 206.4 204.91 206.228 204.762C206.056 204.614 205.843 204.539 205.59 204.539C205.359 204.539 205.162 204.614 204.998 204.762C204.834 204.906 204.736 205.104 204.705 205.354H206.492Z" fill="#434D56"/>
<path d="M181.045 200.276C181.045 201.974 179.645 203.363 177.904 203.363C176.164 203.363 174.764 201.974 174.764 200.276C174.764 198.577 176.164 197.189 177.904 197.189C179.645 197.189 181.045 198.577 181.045 200.276Z" fill="#66EFBF" stroke="white" stroke-width="0.892397"/>
</g>
<g clip-path="url(#clip2_49_381)">
<mask id="mask0_49_381" style="mask-type:luminance" maskUnits="userSpaceOnUse" x="337" y="63" width="25" height="25">
<ellipse cx="349.478" cy="75.6284" rx="11.87" ry="11.8938" fill="white"/>
</mask>
<g mask="url(#mask0_49_381)">
<rect x="337.369" y="63.0598" width="24.7872" height="24.7872" fill="#F7C28D"/>
</g>
<mask id="mask1_49_381" style="mask-type:luminance" maskUnits="userSpaceOnUse" x="317" y="63" width="25" height="25">
<ellipse cx="329.851" cy="75.6284" rx="11.87" ry="11.8938" fill="white"/>
</mask>
<g mask="url(#mask1_49_381)">
<rect x="317.742" y="63.0598" width="24.7872" height="24.7872" fill="#98CAF9"/>
</g>
<path d="M310.791 88.2643C317.758 88.2643 323.403 82.6056 323.403 75.6284C323.403 68.6512 317.758 62.9925 310.791 62.9925C303.824 62.9925 298.179 68.6512 298.179 75.6284C298.179 82.6056 303.824 88.2643 310.791 88.2643Z" fill="#F6F6F6" stroke="white" stroke-width="1.48415"/>
<path d="M308.883 79.2785C308.546 79.2785 308.223 79.2157 307.915 79.0902C307.613 78.9646 307.35 78.7876 307.128 78.5593C306.911 78.3253 306.762 78.0485 306.682 77.7288L307.693 77.3692C307.79 77.6603 307.947 77.8772 308.163 78.0199C308.38 78.1569 308.62 78.2254 308.883 78.2254C309.1 78.2254 309.291 78.1798 309.456 78.0884C309.628 77.9914 309.759 77.8601 309.85 77.6946C309.941 77.5233 309.987 77.3264 309.987 77.1038C309.987 76.8812 309.939 76.6871 309.842 76.5216C309.75 76.3561 309.622 76.2277 309.456 76.1363C309.291 76.0393 309.1 75.9908 308.883 75.9908C308.66 75.9908 308.457 76.0393 308.275 76.1363C308.098 76.2334 307.969 76.3732 307.89 76.5559L306.939 76.3418L307.444 72.7972H310.92V73.7818H307.907L308.343 73.2767L307.984 75.948L307.65 75.674C307.81 75.44 308.004 75.2687 308.232 75.1603C308.466 75.0518 308.749 74.9976 309.08 74.9976C309.502 74.9976 309.867 75.0889 310.176 75.2716C310.489 75.4542 310.732 75.7025 310.903 76.0165C311.075 76.3304 311.16 76.6929 311.16 77.1038C311.16 77.5148 311.06 77.8858 310.86 78.2169C310.661 78.5479 310.39 78.8076 310.047 78.996C309.705 79.1843 309.316 79.2785 308.883 79.2785ZM313.953 79.1758V77.5148H312.292V76.5473H313.953V74.8949H314.921V76.5473H316.573V77.5148H314.921V79.1758H313.953Z" fill="#434D56"/>
</g>
<g clip-path="url(#clip3_49_381)">
<path d="M76.9617 69.635C76.9617 70.2571 76.4568 70.762 75.8347 70.762H74.5919V75.7208C74.5919 76.3953 74.0457 76.943 73.3698 76.943V70.7633H71C71 70.1412 71.5049 69.6364 72.127 69.6364H76.9617V69.635Z" fill="#232323"/>
<path d="M78.9342 75.8257H82.0557C82.6668 75.8257 83.162 76.3209 83.162 76.9319V76.943H77.7231V69.635H83.0999C83.0999 70.2461 82.6047 70.7413 81.9937 70.7413H78.9342V72.6931H82.922C82.922 73.2931 82.4364 73.7787 81.8364 73.7787H78.9342V75.8257Z" fill="#232323"/>
<path d="M87.6408 77.0891C86.507 77.0891 85.5842 76.736 84.8738 76.0298C84.1634 75.3235 83.8089 74.4104 83.8089 73.289C83.8089 72.1675 84.1662 71.264 84.8793 70.5536C85.5925 69.8433 86.5097 69.4888 87.6298 69.4888C88.7498 69.4888 89.6175 69.864 90.3541 70.6157L90.3306 70.6378C89.9278 71.0102 89.3361 71.1068 88.8436 70.8654C88.4919 70.693 88.1002 70.6061 87.6712 70.6061C86.8918 70.6061 86.2587 70.8544 85.7718 71.3523C85.2848 71.8503 85.0407 72.4958 85.0407 73.289C85.0407 74.0821 85.2848 74.7277 85.7718 75.2256C86.2587 75.7236 86.8918 75.9719 87.6712 75.9719C88.1084 75.9719 88.5085 75.8863 88.8712 75.7167C89.3913 75.4725 90.0092 75.5898 90.4065 76.0036C89.6685 76.7278 88.7471 77.0891 87.6394 77.0891H87.6408Z" fill="#232323"/>
<path d="M97.5268 69.635V76.943C96.8523 76.943 96.3061 76.3967 96.3061 75.7222V73.8007H92.4962V75.7222C92.4962 76.3967 91.95 76.943 91.2755 76.943V69.635C91.95 69.635 92.4962 70.1812 92.4962 70.8558V72.6614H96.3061V70.8558C96.3061 70.1812 96.8523 69.635 97.5268 69.635Z" fill="#232323"/>
<path d="M120.594 69.6349L117.578 76.9429H116.262L113.234 69.6349H113.238C114.031 69.6349 114.744 70.1163 115.042 70.8502L115.782 72.6723L116.909 75.5221L118.787 70.8543C119.084 70.1163 119.8 69.6335 120.594 69.6335V69.6349Z" fill="#232323"/>
<path d="M121.283 76.9428V70.857C121.283 70.1825 121.829 69.6362 122.503 69.6362V75.7221C122.503 76.3966 121.957 76.9428 121.283 76.9428Z" fill="#232323"/>
<path d="M130.031 76.943H129.924C128.931 76.943 127.981 76.5388 127.292 75.8229L125.217 73.6656V75.7126C125.217 76.3926 124.665 76.9443 123.985 76.9443V70.8668C123.985 70.1868 124.536 69.635 125.217 69.635V72.7565L127.047 70.7951C127.738 70.0557 128.704 69.635 129.716 69.635L126.375 73.1745L130.029 76.943H130.031Z" fill="#232323"/>
<path d="M130.491 76.9428V70.857C130.491 70.1825 131.037 69.6362 131.712 69.6362V75.7221C131.712 76.3966 131.166 76.9428 130.491 76.9428Z" fill="#232323"/>
<path d="M139.459 69.6349V76.9429C138.762 76.9429 138.105 76.616 137.685 76.0601L134.406 71.7233L134.416 74.0517V75.7221C134.416 76.3966 133.869 76.9429 133.195 76.9429V69.6349C133.891 69.6349 134.548 69.9618 134.969 70.5177L138.248 74.8545L138.236 72.6723V70.8557C138.236 70.1812 138.783 69.6335 139.459 69.6335V69.6349Z" fill="#232323"/>
<path d="M144.084 72.7882H147.258V75.8891C146.458 76.6891 145.466 77.0891 144.282 77.0891C143.099 77.0891 142.226 76.7429 141.537 76.0505C140.849 75.358 140.504 74.438 140.504 73.289C140.504 72.1399 140.863 71.2544 141.58 70.5481C142.297 69.8419 143.226 69.4888 144.368 69.4888C145.446 69.4888 146.351 69.864 147.082 70.6157L146.925 70.773C146.59 71.1082 146.084 71.1551 145.663 70.9385C145.583 70.8971 145.499 70.8585 145.412 70.824C145.064 70.6847 144.713 70.6157 144.358 70.6157C143.579 70.6157 142.946 70.8626 142.459 71.3564C141.972 71.8503 141.728 72.4944 141.728 73.2876C141.728 74.0807 141.959 74.7511 142.422 75.2339C142.884 75.718 143.506 75.9594 144.285 75.9594C145.009 75.9594 145.624 75.7608 146.133 75.3635V73.86H145.162C144.568 73.86 144.086 73.3786 144.086 72.7841L144.084 72.7882Z" fill="#232323"/>
<path d="M151.015 77.0891C149.852 77.0891 148.826 76.7484 147.935 76.0656L147.946 76.0504C148.271 75.5814 148.878 75.4269 149.404 75.6476C149.494 75.6849 149.587 75.7207 149.683 75.7524C150.117 75.8987 150.561 75.9718 151.014 75.9718C151.542 75.9718 151.967 75.8725 152.287 75.6738C152.607 75.4752 152.767 75.2131 152.767 74.8862C152.767 74.5869 152.621 74.3496 152.328 74.1758C152.036 74.002 151.572 73.8737 150.939 73.7896C149.943 73.6503 149.223 73.4061 148.778 73.0585C148.332 72.7109 148.11 72.2171 148.11 71.5757C148.11 70.9343 148.372 70.4625 148.898 70.0722C149.423 69.6818 150.103 69.4873 150.939 69.4873C151.963 69.4873 152.863 69.7894 153.643 70.3949C153.316 70.8556 152.721 70.9963 152.196 70.7908C151.807 70.6391 151.392 70.5618 150.95 70.5618C150.47 70.5618 150.077 70.6584 149.771 70.8488C149.465 71.0405 149.311 71.286 149.311 71.5853C149.311 71.8847 149.451 72.1109 149.729 72.2847C150.008 72.4585 150.454 72.5909 151.066 72.6819C152.103 72.8351 152.851 73.0806 153.31 73.4185C153.77 73.7565 153.999 74.2351 153.999 74.8545C153.999 75.5304 153.726 76.0711 153.179 76.478C152.633 76.8849 151.91 77.0891 151.014 77.0891H151.015Z" fill="#232323"/>
<path d="M106.098 63.6055V73.4764L107.1 72.475V71.7066H109.824L108.893 72.6377H111.198V71.6363H111.523V69.1686H111.035L113.235 66.9685L112.221 63L111.243 65.9919L110.103 66.4222C110.103 66.4222 108.791 64.8318 106.982 64.7463L106.098 63.6055Z" fill="#1F5AA9"/>
<path d="M106.098 73.6642L111.476 73.2214L112.896 78.8562L109.497 74.7815H106.098V73.6642Z" fill="#EE9421"/>
<path d="M106.098 77.2023L109.101 75.5498L111.43 78.4134L106.098 81.4632V77.2023Z" fill="#EE9421"/>
<path d="M106.098 63.6055V73.4764L105.097 72.475V71.7066H102.373L103.304 72.6377H100.999V71.6363H100.673V69.1686H101.161L98.9613 66.9685L99.9752 63L100.953 65.9919L102.094 66.4222C102.094 66.4222 103.406 64.8318 105.214 64.7463L106.098 63.6055Z" fill="#094E90"/>
<path d="M106.098 73.6642L100.72 73.2214L99.2993 78.8562L102.698 74.7815H106.098V73.6642Z" fill="#CB7A29"/>
<path d="M106.098 77.2023L103.094 75.5498L100.766 78.4134L106.098 81.4632V77.2023Z" fill="#CB7A29"/>
</g>
<rect x="70.7273" y="89" width="141.7" height="12.885" rx="6.44248" fill="#F6F6F6"/>
<defs>
<filter id="filter0_d_49_381" x="0.705691" y="0.633079" width="402.97" height="300.962" filterUnits="userSpaceOnUse" color-interpolation-filters="sRGB">
<feFlood flood-opacity="0" result="BackgroundImageFix"/>
<feColorMatrix in="SourceAlpha" type="matrix" values="0 0 0 0 0 0 0 0 0 0 0 0 0 0 0 0 0 0 127 0" result="hardAlpha"/>
<feOffset dx="-2.30913" dy="4.61826"/>
<feGaussianBlur stdDeviation="18.9926"/>
<feComposite in2="hardAlpha" operator="out"/>
<feColorMatrix type="matrix" values="0 0 0 0 0 0 0 0 0 0 0 0 0 0 0 0 0 0 0.12 0"/>
<feBlend mode="normal" in2="BackgroundImageFix" result="effect1_dropShadow_49_381"/>
<feBlend mode="normal" in="SourceGraphic" in2="effect1_dropShadow_49_381" result="shape"/>
</filter>
<clipPath id="clip0_49_381">
<rect width="54.9814" height="12.9544" fill="white" transform="translate(95.6541 141.224)"/>
</clipPath>
<clipPath id="clip1_49_381">
<rect width="50.2099" height="12.9544" fill="white" transform="translate(171.927 196.743)"/>
</clipPath>
<clipPath id="clip2_49_381">
<rect width="62.4273" height="23.7876" fill="white" transform="translate(298.921 63.7346)"/>
</clipPath>
<clipPath id="clip3_49_381">
<rect width="83" height="18.463" fill="white" transform="translate(71 63)"/>
</clipPath>
</defs>
</svg>
