<svg xmlns="http://www.w3.org/2000/svg" width="177" height="40" viewBox="0 0 177 40" fill="none">
  <g clip-path="url(#clip0_33_247)">
    <path d="M12.7135 14.1489C12.7135 15.4756 11.6368 16.5522 10.3102 16.5522H7.65984V27.1271C7.65984 28.5655 6.49498 29.7334 5.05361 29.7334V16.5551H0C0 15.2285 1.07661 14.1519 2.40326 14.1519H12.7135V14.1489Z" fill="#232323"/>
    <path d="M16.9199 27.3507H23.5767C24.8798 27.3507 25.9358 28.4067 25.9358 29.7098V29.7334H14.3372V14.1489H25.8034C25.8034 15.452 24.7474 16.5081 23.4443 16.5081H16.9199V20.6704H25.424C25.424 21.95 24.3886 22.9854 23.109 22.9854H16.9199V27.3507Z" fill="#232323"/>
    <path d="M35.487 30.0452C33.0691 30.0452 31.1012 29.2922 29.5863 27.7861C28.0714 26.28 27.3154 24.3327 27.3154 21.9412C27.3154 19.5497 28.0772 17.623 29.598 16.108C31.1188 14.5931 33.075 13.8372 35.4635 13.8372C37.8521 13.8372 39.7023 14.6373 41.2731 16.2404L41.2231 16.2875C40.3642 17.0817 39.1022 17.2876 38.0521 16.7728C37.302 16.4051 36.4666 16.2198 35.5518 16.2198C33.8898 16.2198 32.5396 16.7493 31.5012 17.8112C30.4628 18.8731 29.9422 20.2498 29.9422 21.9412C29.9422 23.6326 30.4628 25.0092 31.5012 26.0711C32.5396 27.133 33.8898 27.6625 35.5518 27.6625C36.4842 27.6625 37.3373 27.4802 38.1109 27.1183C39.2199 26.5977 40.5377 26.8477 41.3849 27.7302C39.8111 29.2745 37.8462 30.0452 35.4841 30.0452H35.487Z" fill="#232323"/>
    <path d="M56.5693 14.1489V29.7334C55.1309 29.7334 53.966 28.5685 53.966 27.1301V23.0325H45.8414V27.1301C45.8414 28.5685 44.6765 29.7334 43.2381 29.7334V14.1489C44.6765 14.1489 45.8414 15.3138 45.8414 16.7522V20.6027H53.966V16.7522C53.966 15.3138 55.1309 14.1489 56.5693 14.1489Z" fill="#232323"/>
    <path d="M105.761 14.1489L99.3279 29.7334H96.5217L90.0649 14.1489H90.0738C91.7652 14.1489 93.286 15.1755 93.9213 16.7405L95.498 20.6263L97.9013 26.7035L101.908 16.7493C102.54 15.1755 104.067 14.146 105.761 14.146V14.1489Z" fill="#232323"/>
    <path d="M107.229 29.7333V16.7551C107.229 15.3167 108.394 14.1519 109.832 14.1519V27.1301C109.832 28.5685 108.667 29.7333 107.229 29.7333Z" fill="#232323"/>
    <path d="M125.884 29.7334H125.658C123.54 29.7334 121.513 28.8715 120.045 27.3448L115.618 22.7442V27.1095C115.618 28.5597 114.442 29.7363 112.992 29.7363V16.7757C112.992 15.3256 114.168 14.1489 115.618 14.1489V20.8057L119.522 16.6228C120.996 15.0461 123.055 14.1489 125.214 14.1489L118.089 21.697L125.881 29.7334H125.884Z" fill="#232323"/>
    <path d="M126.867 29.7333V16.7551C126.867 15.3167 128.032 14.1519 129.47 14.1519V27.1301C129.47 28.5685 128.305 29.7333 126.867 29.7333Z" fill="#232323"/>
    <path d="M145.99 14.1489V29.7334C144.505 29.7334 143.104 29.0362 142.207 27.8508L135.215 18.6025L135.236 23.5678V27.1301C135.236 28.5685 134.071 29.7334 132.632 29.7334V14.1489C134.118 14.1489 135.518 14.8461 136.415 16.0315L143.407 25.2798L143.384 20.6263V16.7522C143.384 15.3138 144.549 14.146 145.99 14.146V14.1489Z" fill="#232323"/>
    <path d="M155.853 20.8734H162.622V27.486C160.916 29.1921 158.801 30.0452 156.277 30.0452C153.753 30.0452 151.891 29.3069 150.423 27.8302C148.955 26.3535 148.22 24.3915 148.22 21.9412C148.22 19.4909 148.985 17.6024 150.514 16.0963C152.044 14.5902 154.023 13.8372 156.459 13.8372C158.759 13.8372 160.689 14.6373 162.248 16.2404L161.913 16.5758C161.198 17.2906 160.118 17.3906 159.221 16.9287C159.051 16.8405 158.871 16.7581 158.686 16.6846C157.945 16.3875 157.194 16.2404 156.438 16.2404C154.776 16.2404 153.426 16.767 152.388 17.82C151.35 18.8731 150.829 20.2468 150.829 21.9382C150.829 23.6296 151.323 25.0592 152.309 26.0888C153.294 27.1213 154.621 27.6361 156.283 27.6361C157.827 27.6361 159.139 27.2125 160.224 26.3653V23.159H158.153C156.886 23.159 155.859 22.1324 155.859 20.8646L155.853 20.8734Z" fill="#232323"/>
    <path d="M170.634 30.0452C168.155 30.0452 165.966 29.3186 164.066 27.8626L164.089 27.8302C164.784 26.8301 166.078 26.5006 167.199 26.9713C167.39 27.0507 167.59 27.1272 167.793 27.1948C168.72 27.5066 169.667 27.6625 170.632 27.6625C171.758 27.6625 172.664 27.4507 173.347 27.0272C174.029 26.6036 174.37 26.0447 174.37 25.3475C174.37 24.7092 174.058 24.2033 173.435 23.8326C172.811 23.462 171.823 23.1884 170.473 23.009C168.349 22.7119 166.813 22.1912 165.863 21.4499C164.913 20.7087 164.44 19.6556 164.44 18.2878C164.44 16.9199 164.998 15.9139 166.119 15.0815C167.24 14.249 168.69 13.8342 170.473 13.8342C172.655 13.8342 174.576 14.4784 176.238 15.7698C175.541 16.7523 174.273 17.0523 173.152 16.614C172.323 16.2904 171.438 16.1257 170.496 16.1257C169.473 16.1257 168.634 16.3316 167.981 16.7376C167.328 17.1464 167.002 17.67 167.002 18.3084C167.002 18.9467 167.299 19.4291 167.893 19.7997C168.487 20.1704 169.437 20.4528 170.743 20.6469C172.955 20.9734 174.55 21.497 175.529 22.2177C176.509 22.9384 176.997 23.9591 176.997 25.2799C176.997 26.7212 176.415 27.8743 175.25 28.7421C174.085 29.6099 172.544 30.0452 170.632 30.0452H170.634Z" fill="#232323"/>
    <path d="M74.8481 1.29135V22.3412L76.9837 20.2056V18.5672H82.7933L80.8077 20.5527H85.7231V18.4172H86.4173V13.1547H85.376L90.0678 8.46289L87.9057 0L85.8201 6.38026L83.3875 7.29803C83.3875 7.29803 80.59 3.9064 76.7336 3.72402L74.8481 1.29135Z" fill="#1F5AA9"/>
    <path d="M74.8481 22.7414L86.3173 21.7971L89.3441 33.8134L82.0961 25.124H74.8481V22.7414Z" fill="#EE9421"/>
    <path d="M74.8481 30.2864L81.2519 26.7625L86.2172 32.8691L74.8481 39.373V30.2864Z" fill="#EE9421"/>
    <path d="M74.8481 1.29135V22.3412L72.7125 20.2056V18.5672H66.9029L68.8885 20.5527H63.9731V18.4172H63.2789V13.1547H64.3202L59.6284 8.46289L61.7905 0L63.876 6.38026L66.3087 7.29803C66.3087 7.29803 69.1061 3.9064 72.9625 3.72402L74.8481 1.29135Z" fill="#094E90"/>
    <path d="M74.8481 22.7414L63.3789 21.7971L60.3491 33.8134L67.5971 25.124H74.8481V22.7414Z" fill="#CB7A29"/>
    <path d="M74.8481 30.2864L68.4413 26.7625L63.476 32.8691L74.8481 39.373V30.2864Z" fill="#CB7A29"/>
  </g>
  <defs>
    <clipPath id="clip0_33_247">
      <rect width="177" height="39.3729" fill="white"/>
    </clipPath>
  </defs>
</svg>